<svg width="22" height="23" viewBox="0 0 22 23" fill="none" xmlns="http://www.w3.org/2000/svg">
<path fill-rule="evenodd" clip-rule="evenodd" d="M1.70711 1.29094C1.31658 0.900416 0.683418 0.900416 0.292893 1.29094C-0.0976311 1.68146 -0.0976311 2.31463 0.292893 2.70515L9.58579 11.998L0.493904 21.0899C0.10338 21.4805 0.103379 22.1136 0.493904 22.5041C0.884428 22.8947 1.51759 22.8947 1.90812 22.5041L11 13.4123L20.0919 22.5041C20.4824 22.8947 21.1156 22.8947 21.5061 22.5041C21.8966 22.1136 21.8966 21.4805 21.5061 21.0899L12.4142 11.998L21.7071 2.70515C22.0976 2.31463 22.0976 1.68146 21.7071 1.29094C21.3166 0.900416 20.6834 0.900416 20.2929 1.29094L11 10.5838L1.70711 1.29094Z" fill="#111"/>
</svg>
