<svg xmlns="http://www.w3.org/2000/svg" xmlns:xlink="http://www.w3.org/1999/xlink" width="22.687" height="21.409" viewBox="0 0 22.687 21.409"><defs><clipPath id="a"><rect width="22.687" height="21.409" fill="none"/></clipPath><clipPath id="b"><rect width="22.687" height="21.409" fill="#999"/></clipPath></defs><g clip-path="url(#a)"><g clip-path="url(#b)"><path d="M20.9.11.769,8.883a1.279,1.279,0,0,0-.076,2.31L4.775,13.3,16.933,4.842a.17.17,0,0,1,.267.135L7.016,14.7a1.278,1.278,0,0,0-.4.926v4.5a1.28,1.28,0,0,0,2.372.667l2.471-4.044,5.227,2.7a1.28,1.28,0,0,0,1.831-.836L22.65,1.585A1.28,1.28,0,0,0,20.9.11" transform="translate(0 0)" fill="#999"/></g></g></svg>